<svg id="Group_7735" data-name="Group 7735" xmlns="http://www.w3.org/2000/svg" xmlns:xlink="http://www.w3.org/1999/xlink" width="42.462" height="47.834" viewBox="0 0 42.462 47.834">
  <defs>
    <clipPath id="clip-path">
      <rect id="Rectangle_24" data-name="Rectangle 24" width="42.462" height="47.834"/>
    </clipPath>
  </defs>
  <g id="Group_7704" data-name="Group 7704" transform="translate(0 0)" clip-path="url(#clip-path)">
    <path id="Path_23126" data-name="Path 23126" d="M7.349,23.755,0,21.764V16.009L7.349,18Zm22.225-8.926,4.484,1.239,7.452-2.019-5.673-1.537a25.6,25.6,0,0,1-6.263,2.317M12.9,14.822A25.548,25.548,0,0,1,6.651,12.5L.945,14.049,8.4,16.068Zm-10.7,9.6V42.412l6.321,1.911L7.413,25.906Zm22.56-8.28a7.075,7.075,0,0,1-7.072,0l-4.46,1.233,8,2.167,8-2.167Zm9.177,28.177,6.318-1.91V24.425l-5.2,1.477ZM35.113,18l0,5.756,7.351-1.992V16.009ZM11.49,45.22l8.649,2.615V29.522l-9.767-2.776Zm10.835-18,9.887-2.68V18.786l-9.887,2.68Zm0,20.613,8.649-2.615L32.1,26.744l-9.776,2.778ZM10.251,24.542l9.887,2.68V21.465l-9.887-2.679Zm-.7-23.454C20.61-2.555,19.368,3.5,20.368,11.237a4.159,4.159,0,0,1,1.72,0c1-7.74-.278-13.723,10.808-10.156,9.189,2.957-.663,12.018-9.034,12.744a3.081,3.081,0,0,1-2.635,1.194,3.08,3.08,0,0,1-2.634-1.194C10.222,13.1.38,4.107,9.549,1.088M22.466,11.341a2.038,2.038,0,0,1,1.614,1.742,1.317,1.317,0,0,1-.039.306c7.907-3,8.564-10.45,6.323-11.1-1.995-.583-4.433,1.57-7.9,9.057m-4.051,2.048a1.316,1.316,0,0,1-.039-.306,2.039,2.039,0,0,1,1.614-1.742c-3.464-7.487-5.908-9.653-7.9-9.057-2.237.671-1.583,8.1,6.323,11.105" transform="translate(0 0)"/>
  </g>
</svg>
