<svg xmlns="http://www.w3.org/2000/svg" xmlns:xlink="http://www.w3.org/1999/xlink" width="37.057" height="45.834" viewBox="0 0 37.057 45.834">
  <defs>
    <clipPath id="clip-path">
      <rect id="Rectangle_20" data-name="Rectangle 20" width="37.057" height="45.834" transform="translate(0 0)"/>
    </clipPath>
  </defs>
  <g id="Group_7694" data-name="Group 7694" transform="translate(0 -0.002)">
    <g id="Group_7693" data-name="Group 7693" transform="translate(0 0.002)" clip-path="url(#clip-path)">
      <path id="Path_23105" data-name="Path 23105" d="M2760.948,1664.922h-1.475a17.741,17.741,0,0,1,0,4.739h1.475a1.528,1.528,0,0,0,1.528-1.528v-1.683a1.528,1.528,0,0,0-1.528-1.528" transform="translate(-2725.419 -1644.376)"/>
      <path id="Path_23106" data-name="Path 23106" d="M566.053,8.456a17.421,17.421,0,0,1,19.506,0l.033.023V2.525A2.523,2.523,0,0,0,583.069,0H568.543a2.523,2.523,0,0,0-2.523,2.523V8.478l.033-.023" transform="translate(-559.035 -0.002)"/>
      <path id="Path_23107" data-name="Path 23107" d="M32.224,508.171a16.772,16.772,0,0,0-2.769-4.444q-.4-.458-.825-.886a16.9,16.9,0,0,0-1.532-1.356q-.463-.362-.949-.691a16.75,16.75,0,0,0-18.755,0q-.486.328-.949.691a16.889,16.889,0,0,0-1.532,1.356q-.427.427-.824.886a16.781,16.781,0,0,0-2.77,4.445,16.75,16.75,0,0,0,1.546,15.906,16.815,16.815,0,0,0,7.378,6.075,16.751,16.751,0,0,0,15.906-1.546,16.817,16.817,0,0,0,6.075-7.378,16.823,16.823,0,0,0,0-13.057M16.771,529.726A15.02,15.02,0,0,1,6.343,503.89l.1-.1a15,15,0,0,1,20.653,0l.1.1a15.02,15.02,0,0,1-10.428,25.836" transform="translate(0 -491.783)"/>
      <rect id="Rectangle_16" data-name="Rectangle 16" width="2.898" height="1.047" transform="translate(4.642 22.393)"/>
      <rect id="Rectangle_17" data-name="Rectangle 17" width="2.898" height="1.047" transform="translate(26.002 22.393)"/>
      <rect id="Rectangle_18" data-name="Rectangle 18" width="1.047" height="2.898" transform="translate(16.248 10.787)"/>
      <rect id="Rectangle_19" data-name="Rectangle 19" width="1.047" height="2.898" transform="translate(16.248 32.147)"/>
      <path id="Path_23108" data-name="Path 23108" d="M1224.331,1720.554a1.7,1.7,0,1,0-1.7,1.7,1.7,1.7,0,0,0,1.7-1.7" transform="translate(-1205.856 -1697.638)"/>
      <path id="Path_23109" data-name="Path 23109" d="M1323.433,1478.659l-.076-.12a.813.813,0,0,0-1.121-.251l-5.64,3.579.947,1.491,5.64-3.58a.812.812,0,0,0,.25-1.121" transform="translate(-1300.348 -1459.921)"/>
      <path id="Path_23110" data-name="Path 23110" d="M704.062,1206.244l1.245-1.252-7.213-7.171a.812.812,0,0,0-1.149,0l-.1.1a.812.812,0,0,0,0,1.149Z" transform="translate(-688.014 -1182.805)"/>
      <path id="Path_23111" data-name="Path 23111" d="M332.875,364.849l-.1.1-2.264-.129.009-.034,1.953-7.355a.2.2,0,0,1,.4.023v7.4Z" transform="translate(-326.43 -352.84)"/>
      <path id="Path_23112" data-name="Path 23112" d="M2198.14,364.816l-2.264.13-.1-.1v-7.4a.2.2,0,0,1,.4-.023l1.953,7.356Z" transform="translate(-2168.677 -352.84)"/>
      <path id="Path_23113" data-name="Path 23113" d="M566.053,3027.221a17.421,17.421,0,0,0,19.506,0l.033-.023v5.953a2.523,2.523,0,0,1-2.523,2.523H568.543a2.523,2.523,0,0,1-2.523-2.523V3027.2l.033.022" transform="translate(-559.035 -2989.84)"/>
      <path id="Path_23114" data-name="Path 23114" d="M332.875,2733.135l-.1-.1-2.264.13.009.034,1.953,7.355a.2.2,0,0,0,.4-.023v-7.4Z" transform="translate(-326.43 -2699.31)"/>
      <path id="Path_23115" data-name="Path 23115" d="M2198.14,2733.167l-2.264-.13-.1.1v7.4a.2.2,0,0,0,.4.023l1.953-7.356Z" transform="translate(-2168.677 -2699.309)"/>
    </g>
  </g>
</svg>
