<svg xmlns="http://www.w3.org/2000/svg" xmlns:xlink="http://www.w3.org/1999/xlink" width="37.902" height="55.619" viewBox="0 0 37.902 55.619">
  <defs>
    <clipPath id="clip-path">
      <rect id="Rectangle_22" data-name="Rectangle 22" width="37.902" height="55.619" fill="none"/>
    </clipPath>
  </defs>
  <g id="Group_7698" data-name="Group 7698" transform="translate(-1349 -1014.424)">
    <path id="Path_23123" data-name="Path 23123" d="M-7.1,2.378V-4.264h1.953V.659h2.353A2.932,2.932,0,0,0-.808,0,2.361,2.361,0,0,0-.015-1.911V-7.56H1.938v5.608A4.458,4.458,0,0,1,1.378.363,3.734,3.734,0,0,1-.265,1.857a5.907,5.907,0,0,1-2.6.522Zm-3.622,0V-7.56h9.037V-3.1a6.326,6.326,0,0,1-.042.705,5.965,5.965,0,0,1-.129.734,4.165,4.165,0,0,1-.229.688l-1.694.275-.1-.083A8.463,8.463,0,0,0-3.7-1.819a10.044,10.044,0,0,0,.063-1.118v-2.9H-8.769V2.378Z" transform="translate(1372.21 1035.151)"/>
    <g id="Group_7695" data-name="Group 7695" transform="translate(1349 1014.424)">
      <g id="Group_7697" data-name="Group 7697" clip-path="url(#clip-path)">
        <path id="Path_23119" data-name="Path 23119" d="M175.314,242.665a2,2,0,0,1-1.483.905l-1.757.17a.385.385,0,0,0-.307.213l-.775,1.586a2.04,2.04,0,0,1-2.209,1.086l-1.729-.355a.386.386,0,0,0-.356.113l-.28.3-1.411,5.881,3.268,7.612,4.282-6.978,8.008,1.7Z" transform="translate(-142.664 -209.805)"/>
        <path id="Path_23120" data-name="Path 23120" d="M25.9,253.114l-1.547-.849a.387.387,0,0,0-.373,0l-1.533.874a2.009,2.009,0,0,1-2.437-.347l-1.228-1.267a.389.389,0,0,0-.358-.107L16.7,251.8a2.008,2.008,0,0,1-2.227-1.05l-.8-1.573a.381.381,0,0,0-.311-.208l-1.759-.142a2,2,0,0,1-.93-.316L6.369,266.47l8.856-1.376a.8.8,0,0,1,.125-.01.814.814,0,0,1,.476.154l7.267,5.244,4.117-17.163a2.012,2.012,0,0,1-1.308-.2" transform="translate(-5.507 -214.863)"/>
        <path id="Path_23121" data-name="Path 23121" d="M36.934,17.253a.383.383,0,0,0-.039-.467l-1.193-1.3a2.022,2.022,0,0,1-.452-1.908l.483-1.7a.382.382,0,0,0-.175-.435l-1.523-.891a2.023,2.023,0,0,1-.994-1.69L33,7.1a.382.382,0,0,0-.295-.364l-1.719-.4A2.023,2.023,0,0,1,29.541,5.01l-.557-1.675a.382.382,0,0,0-.362-.262L26.834,3.2A2.021,2.021,0,0,1,25.06,2.36L24.034.924a.389.389,0,0,0-.449-.134l-1.647.635A2.039,2.039,0,0,1,20,1.148l-1.4-1.07a.383.383,0,0,0-.469,0L16.739,1.175a2.038,2.038,0,0,1-1.937.308L13.146.874a.387.387,0,0,0-.447.142l-1,1.453a2.01,2.01,0,0,1-1.76.865L8.174,3.24a.4.4,0,0,0-.385.267L7.26,5.191A2.022,2.022,0,0,1,5.833,6.536l-1.712.43a.382.382,0,0,0-.289.369L3.822,9.1a2.021,2.021,0,0,1-.967,1.706l-1.509.916a.382.382,0,0,0-.168.437l.511,1.69a2.022,2.022,0,0,1-.421,1.915L.1,17.084a.382.382,0,0,0-.031.467l.986,1.464a2.022,2.022,0,0,1,.162,1.954L.483,22.576a.382.382,0,0,0,.108.456L1.965,24.14A2.022,2.022,0,0,1,2.7,25.96l-.225,1.75a.383.383,0,0,0,.238.4l1.639.654a2.023,2.023,0,0,1,1.235,1.523l.3,1.739a.382.382,0,0,0,.346.316l1.759.142A2.023,2.023,0,0,1,9.618,33.58l.8,1.573a.385.385,0,0,0,.424.2l1.723-.383a2.007,2.007,0,0,1,1.879.563L15.672,36.8a.389.389,0,0,0,.464.066l1.533-.874a2.043,2.043,0,0,1,1.961-.016l1.547.849a.389.389,0,0,0,.463-.074l1.208-1.287a2.033,2.033,0,0,1,1.869-.593l1.729.355a.389.389,0,0,0,.42-.207l.775-1.586a2.022,2.022,0,0,1,1.611-1.118l1.757-.17a.382.382,0,0,0,.341-.322l.273-1.743a2.023,2.023,0,0,1,1.21-1.543l1.629-.68a.383.383,0,0,0,.231-.408L34.441,25.7a2.022,2.022,0,0,1,.7-1.831l1.355-1.13a.382.382,0,0,0,.1-.458l-.757-1.594a2.022,2.022,0,0,1,.131-1.957ZM18.5,33.556a15.1,15.1,0,1,1,15.1-15.1,15.116,15.116,0,0,1-15.1,15.1" transform="translate(0)"/>
        <path id="Path_23122" data-name="Path 23122" d="M45.39,30.8A14.286,14.286,0,1,0,59.676,45.091,14.3,14.3,0,0,0,45.39,30.8m0,25.864A11.578,11.578,0,1,1,56.968,45.091,11.578,11.578,0,0,1,45.39,56.669" transform="translate(-26.892 -26.634)"/>
      </g>
    </g>
  </g>
</svg>
