<svg xmlns="http://www.w3.org/2000/svg" xmlns:xlink="http://www.w3.org/1999/xlink" width="24.973" height="36.646" viewBox="0 0 24.973 36.646">
  <defs>
    <clipPath id="clip-path">
      <rect id="Rectangle_22" data-name="Rectangle 22" width="24.973" height="36.646" fill="none"/>
    </clipPath>
  </defs>
  <g id="Group_7822" data-name="Group 7822" transform="translate(-1168.818 -485)">
    <g id="Group_7821" data-name="Group 7821" transform="translate(-28 -2.734)">
      <g id="Group_7695" data-name="Group 7695" transform="translate(1196.818 487.734)">
        <g id="Group_7697" data-name="Group 7697" clip-path="url(#clip-path)">
          <path id="Path_23119" data-name="Path 23119" d="M171.8,242.665a1.319,1.319,0,0,1-.977.6l-1.158.112a.254.254,0,0,0-.2.14l-.51,1.045a1.344,1.344,0,0,1-1.456.716l-1.139-.234a.254.254,0,0,0-.234.074l-.184.2-.929,3.875,2.153,5.016,2.821-4.6,5.276,1.121Z" transform="translate(-150.286 -221.014)"/>
          <path id="Path_23120" data-name="Path 23120" d="M19.239,251.545l-1.019-.559a.255.255,0,0,0-.246,0l-1.01.576a1.324,1.324,0,0,1-1.606-.229l-.809-.835a.256.256,0,0,0-.236-.071l-1.135.252a1.323,1.323,0,0,1-1.467-.692l-.527-1.036a.251.251,0,0,0-.2-.137l-1.159-.093a1.319,1.319,0,0,1-.613-.208l-2.838,11.83,5.835-.907a.525.525,0,0,1,.082-.006.536.536,0,0,1,.314.1l4.788,3.455L20.1,251.68a1.326,1.326,0,0,1-.862-.134" transform="translate(-5.801 -226.342)"/>
          <path id="Path_23121" data-name="Path 23121" d="M24.335,11.368a.252.252,0,0,0-.026-.308l-.786-.857a1.332,1.332,0,0,1-.3-1.257l.318-1.119a.252.252,0,0,0-.115-.286l-1-.587A1.333,1.333,0,0,1,21.77,5.84l-.025-1.163a.252.252,0,0,0-.194-.24l-1.132-.265a1.333,1.333,0,0,1-.954-.871L19.1,2.2a.251.251,0,0,0-.239-.172l-1.178.081a1.332,1.332,0,0,1-1.169-.551L15.836.608a.256.256,0,0,0-.3-.088L14.455.939A1.343,1.343,0,0,1,13.176.757l-.925-.7a.252.252,0,0,0-.309,0l-.913.72a1.343,1.343,0,0,1-1.276.2L8.662.576a.255.255,0,0,0-.294.093l-.66.957a1.324,1.324,0,0,1-1.16.57L5.386,2.135a.265.265,0,0,0-.254.176L4.783,3.42a1.332,1.332,0,0,1-.94.887L2.715,4.59a.252.252,0,0,0-.191.243L2.518,6A1.332,1.332,0,0,1,1.881,7.12l-.994.6a.252.252,0,0,0-.11.288l.337,1.113a1.332,1.332,0,0,1-.277,1.262l-.772.87a.252.252,0,0,0-.021.308l.65.965A1.332,1.332,0,0,1,.8,13.817L.318,14.875a.252.252,0,0,0,.071.3l.905.73a1.333,1.333,0,0,1,.482,1.2l-.148,1.153a.252.252,0,0,0,.157.266l1.08.431a1.333,1.333,0,0,1,.814,1l.2,1.146a.252.252,0,0,0,.228.208l1.159.093a1.333,1.333,0,0,1,1.074.719l.527,1.036a.254.254,0,0,0,.279.132l1.135-.252a1.323,1.323,0,0,1,1.238.371l.809.835a.256.256,0,0,0,.306.044l1.01-.576a1.346,1.346,0,0,1,1.292-.01l1.019.559a.256.256,0,0,0,.3-.049l.8-.848a1.339,1.339,0,0,1,1.232-.391l1.139.234a.256.256,0,0,0,.277-.136l.511-1.045a1.332,1.332,0,0,1,1.062-.737l1.157-.112a.252.252,0,0,0,.225-.212l.18-1.149a1.333,1.333,0,0,1,.8-1.017l1.073-.448a.252.252,0,0,0,.152-.269l-.167-1.151a1.332,1.332,0,0,1,.462-1.207l.893-.745a.252.252,0,0,0,.066-.3l-.5-1.051a1.332,1.332,0,0,1,.086-1.289ZM12.188,22.109a9.948,9.948,0,1,1,9.948-9.948,9.959,9.959,0,0,1-9.948,9.948" transform="translate(0 0)"/>
          <path id="Path_23122" data-name="Path 23122" d="M40.517,30.8a9.413,9.413,0,1,0,9.413,9.413A9.423,9.423,0,0,0,40.517,30.8m0,17.041a7.628,7.628,0,1,1,7.628-7.628,7.628,7.628,0,0,1-7.628,7.628" transform="translate(-28.329 -28.057)"/>
        </g>
      </g>
    </g>
    <path id="Path_23184" data-name="Path 23184" d="M3208.139,497.583l2.734,2.734,4.413-4.413" transform="translate(-2030.408 -1)" fill="none" stroke="#000" stroke-width="3"/>
  </g>
</svg>
