<svg id="Group_7797" data-name="Group 7797" xmlns="http://www.w3.org/2000/svg" width="26.131" height="27.535" viewBox="0 0 26.131 27.535">
  <path id="Path_23141" data-name="Path 23141" d="M13.065,25.935A12.284,12.284,0,0,1,8.549,2.228l-.4,1.582a.392.392,0,1,0,.76.19L9.5,1.659a.39.39,0,0,0-.176-.43L7.4.059a.392.392,0,0,0-.407.669L8.26,1.5a13.067,13.067,0,0,0,4.805,25.218.392.392,0,0,0,0-.783" transform="translate(0 -0.003)"/>
  <path id="Path_23142" data-name="Path 23142" d="M585.144,27a.392.392,0,0,0,0,.783,12.284,12.284,0,0,1,4.081,23.87l.378-1.511a.392.392,0,1,0-.76-.19l-.585,2.341a.39.39,0,0,0,.176.43l1.923,1.17a.392.392,0,1,0,.407-.669l-1.334-.812A13.068,13.068,0,0,0,585.144,27" transform="translate(-572.078 -26.412)"/>
  <path id="Path_23143" data-name="Path 23143" d="M620.061,459.872v-8.424l-6.768,2.909v8.424Z" transform="translate(-600 -441.663)"/>
  <path id="Path_23144" data-name="Path 23144" d="M277.878,451.448v8.424l6.768,2.909v-8.424l-2.933-1.261v1.774a.25.25,0,0,1-.114.21.248.248,0,0,1-.238.019l-1.409-.619a.252.252,0,0,1-.15-.23v-1.974Z" transform="translate(-271.855 -441.664)"/>
  <path id="Path_23145" data-name="Path 23145" d="M474.166,381.789l2.765,1.189,6.64-2.854-2.765-1.189Z" transform="translate(-463.889 -370.722)"/>
  <path id="Path_23146" data-name="Path 23146" d="M389.812,499.585v1.6l.908.4v-1.605Z" transform="translate(-381.363 -488.757)"/>
  <path id="Path_23147" data-name="Path 23147" d="M408.4,353.516l.79.34,6.64-2.854-.791-.34Z" transform="translate(-399.551 -343.062)"/>
  <path id="Path_23148" data-name="Path 23148" d="M295.389,304.954l1.814.78,6.64-2.854-1.815-.78Z" transform="translate(-288.987 -295.553)"/>
</svg>
