<svg xmlns="http://www.w3.org/2000/svg" xmlns:xlink="http://www.w3.org/1999/xlink" width="22.282" height="38.101" viewBox="0 0 22.282 38.101">
  <defs>
    <clipPath id="clip-path">
      <rect id="Rectangle_22" data-name="Rectangle 22" width="20.012" height="29.367" fill="none"/>
    </clipPath>
  </defs>
  <g id="Group_7796" data-name="Group 7796" transform="translate(0)">
    <g id="Group_7695" data-name="Group 7695" transform="translate(1.063 8.734)">
      <g id="Group_7697" data-name="Group 7697" clip-path="url(#clip-path)">
        <path id="Path_23119" data-name="Path 23119" d="M170.45,242.665a1.057,1.057,0,0,1-.783.478l-.928.09a.2.2,0,0,0-.162.112l-.409.837a1.077,1.077,0,0,1-1.166.574l-.913-.188a.2.2,0,0,0-.188.06l-.148.158-.745,3.105,1.726,4.019,2.261-3.684,4.228.9Z" transform="translate(-153.21 -225.315)"/>
        <path id="Path_23120" data-name="Path 23120" d="M16.683,250.943l-.817-.448a.2.2,0,0,0-.2,0l-.81.461a1.061,1.061,0,0,1-1.287-.183l-.649-.669a.205.205,0,0,0-.189-.057l-.91.2a1.06,1.06,0,0,1-1.176-.555l-.423-.831a.2.2,0,0,0-.164-.11l-.929-.075a1.057,1.057,0,0,1-.491-.167L6.369,258l4.676-.727a.42.42,0,0,1,.066-.005.43.43,0,0,1,.251.081l3.837,2.769,2.174-9.062a1.063,1.063,0,0,1-.69-.108" transform="translate(-5.914 -230.747)"/>
        <path id="Path_23121" data-name="Path 23121" d="M19.5,9.11a.2.2,0,0,0-.021-.247l-.63-.687a1.068,1.068,0,0,1-.239-1.008l.255-.9a.2.2,0,0,0-.092-.229l-.8-.47a1.068,1.068,0,0,1-.525-.893l-.02-.932a.2.2,0,0,0-.156-.192l-.907-.212a1.068,1.068,0,0,1-.765-.7L15.3,1.761a.2.2,0,0,0-.191-.138l-.944.065a1.067,1.067,0,0,1-.937-.442L12.69.488a.205.205,0,0,0-.237-.071l-.869.336A1.077,1.077,0,0,1,10.559.606L9.818.041a.2.2,0,0,0-.247,0L8.838.62A1.076,1.076,0,0,1,7.816.783L6.941.461a.2.2,0,0,0-.236.075L6.176,1.3a1.061,1.061,0,0,1-.929.457l-.931-.049a.212.212,0,0,0-.2.141l-.28.889a1.067,1.067,0,0,1-.753.71l-.9.227a.2.2,0,0,0-.153.195L2.018,4.8a1.067,1.067,0,0,1-.51.9l-.8.483a.2.2,0,0,0-.089.231l.27.892A1.068,1.068,0,0,1,.67,8.323l-.619.7a.2.2,0,0,0-.016.247l.521.773a1.068,1.068,0,0,1,.086,1.032l-.386.848a.2.2,0,0,0,.057.241l.725.585a1.068,1.068,0,0,1,.386.961l-.119.924a.2.2,0,0,0,.126.213l.865.345a1.068,1.068,0,0,1,.652.8l.159.918a.2.2,0,0,0,.183.167l.929.075a1.068,1.068,0,0,1,.86.576l.423.831a.2.2,0,0,0,.224.106l.91-.2a1.06,1.06,0,0,1,.992.3l.649.669a.205.205,0,0,0,.245.035L9.33,19A1.079,1.079,0,0,1,10.365,19l.817.448a.205.205,0,0,0,.244-.039l.638-.679a1.073,1.073,0,0,1,.987-.313l.913.187a.205.205,0,0,0,.222-.109l.409-.837a1.068,1.068,0,0,1,.851-.59l.928-.09a.2.2,0,0,0,.18-.17l.144-.921a1.068,1.068,0,0,1,.639-.815l.86-.359a.2.2,0,0,0,.122-.215l-.134-.922a1.068,1.068,0,0,1,.371-.967l.716-.6a.2.2,0,0,0,.053-.242l-.4-.842a1.067,1.067,0,0,1,.069-1.033ZM9.767,17.718a7.972,7.972,0,1,1,7.972-7.972,7.981,7.981,0,0,1-7.972,7.972" transform="translate(0)"/>
        <path id="Path_23122" data-name="Path 23122" d="M38.647,30.8a7.543,7.543,0,1,0,7.543,7.543A7.552,7.552,0,0,0,38.647,30.8m0,13.656a6.113,6.113,0,1,1,6.113-6.113,6.113,6.113,0,0,1-6.113,6.113" transform="translate(-28.88 -28.603)"/>
      </g>
    </g>
    <path id="Path_23149" data-name="Path 23149" d="M-2.294-5.947a.247.247,0,0,1-.181-.076A.247.247,0,0,1-2.551-6.2v-3.84l-1.064.817a.215.215,0,0,1-.143.048A.273.273,0,0,1-3.977-9.3l-.836-1.083a.432.432,0,0,1-.038-.143.267.267,0,0,1,.033-.128.274.274,0,0,1,.09-.1l2.29-1.777a.357.357,0,0,1,.209-.067h1.8a.247.247,0,0,1,.181.076.247.247,0,0,1,.076.181V-6.2a.247.247,0,0,1-.076.181.247.247,0,0,1-.181.076Z" transform="translate(12.778 27.881)"/>
    <path id="Path_23150" data-name="Path 23150" d="M3.214,0,2.221,2.013,0,2.335,1.607,3.9,1.228,6.114,3.214,5.069,5.2,6.114,4.822,3.9,6.429,2.335,4.208,2.013Z" transform="translate(7.926 0)"/>
    <path id="Path_23151" data-name="Path 23151" d="M2.414,0,1.668,1.512,0,1.754,1.207,2.93.922,4.592l1.492-.784,1.492.784L3.621,2.93,4.828,1.754,3.16,1.512Z" transform="translate(18.101 2.761) rotate(30)"/>
    <path id="Path_23152" data-name="Path 23152" d="M2.414,0,1.668,1.512,0,1.754,1.207,2.93.922,4.592l1.492-.784,1.492.784L3.621,2.93,4.828,1.754,3.16,1.512Z" transform="translate(2.296 2.761) rotate(30)"/>
  </g>
</svg>
