<svg xmlns="http://www.w3.org/2000/svg" xmlns:xlink="http://www.w3.org/1999/xlink" width="28.14" height="27.169" viewBox="0 0 28.14 27.169">
  <defs>
    <clipPath id="clip-path">
      <rect id="Rectangle_37" data-name="Rectangle 37" width="28.14" height="27.169" transform="translate(0 0)"/>
    </clipPath>
  </defs>
  <g id="Group_7790" data-name="Group 7790" transform="translate(0 0)">
    <g id="Group_7789" data-name="Group 7789" transform="translate(0 0)" clip-path="url(#clip-path)">
      <path id="Path_23138" data-name="Path 23138" d="M26.26,10.429c-.05,0-.1,0-.149.007a12.164,12.164,0,0,0-24.082,0c-.049,0-.1-.007-.149-.007A1.974,1.974,0,0,0,0,12.484V16.5a1.974,1.974,0,0,0,1.881,2.055A1.974,1.974,0,0,0,3.761,16.5V12.484a2.189,2.189,0,0,0-.277-1.074,10.612,10.612,0,0,1,21.172,0,2.188,2.188,0,0,0-.277,1.074V16.5a2.184,2.184,0,0,0,.3,1.112,9.411,9.411,0,0,1-6.211,7.262,1.818,1.818,0,0,0-1.616-.91h-3.5a1.612,1.612,0,1,0,0,3.2h3.5a1.783,1.783,0,0,0,1.706-1.113,10.494,10.494,0,0,0,7.117-7.6,1.733,1.733,0,0,0,.585.1A1.973,1.973,0,0,0,28.14,16.5V12.484a1.973,1.973,0,0,0-1.881-2.055" transform="translate(0 0.001)"/>
    </g>
  </g>
</svg>
