<svg id="Group_7828" data-name="Group 7828" xmlns="http://www.w3.org/2000/svg" xmlns:xlink="http://www.w3.org/1999/xlink" width="49.977" height="22" viewBox="0 0 49.977 22">
  <defs>
    <clipPath id="clip-path">
      <rect id="Rectangle_44" data-name="Rectangle 44" width="49.977" height="22"/>
    </clipPath>
  </defs>
  <g id="Group_7827" data-name="Group 7827" clip-path="url(#clip-path)">
    <path id="Path_23188" data-name="Path 23188" d="M611.686,29.313a.88.88,0,0,0-.081-.268l-3.977-7.379a.872.872,0,0,0-.768-.458h-7.945a.872.872,0,0,0-.872.871V36.7a.872.872,0,0,0,.872.871h.912a5.105,5.105,0,0,1,10.1,0h.912a.872.872,0,0,0,.872-.871V29.457a.74.74,0,0,0-.015-.1Zm-7.98-1.054V22.979a.161.161,0,0,1,.16-.16h2.454a.161.161,0,0,1,.142.085l2.781,5.281a.16.16,0,0,1-.141.235h-5.235a.161.161,0,0,1-.16-.16" transform="translate(-561.732 -19.921)"/>
    <path id="Path_23189" data-name="Path 23189" d="M9.475,12.674l.011,4.105a.873.873,0,0,0,.871.874h3.421a5.105,5.105,0,0,1,10.1,0H33.913a.872.872,0,0,0,.871-.869V2.16s0,0,0-.007V.873A.873.873,0,0,0,33.913,0l-23.6,0a.872.872,0,0,0-.871.871l.01,3.877H19.485a.764.764,0,1,1,0,1.528H9.459v.012H5.437a.764.764,0,1,0,0,1.528H9.463l0,1.788h5.345a.764.764,0,1,1,0,1.528H9.471v.012H.764a.764.764,0,0,0,0,1.528H9.475Z" transform="translate(0 -0.001)"/>
    <path id="Path_23190" data-name="Path 23190" d="M258.2,247.857a3.585,3.585,0,1,0-3.585,3.584,3.589,3.589,0,0,0,3.585-3.584" transform="translate(-235.791 -229.441)"/>
    <path id="Path_23191" data-name="Path 23191" d="M655.125,244.274a3.584,3.584,0,1,0,3.584,3.584,3.589,3.589,0,0,0-3.584-3.584" transform="translate(-611.981 -229.442)"/>
  </g>
</svg>
