<svg xmlns="http://www.w3.org/2000/svg" xmlns:xlink="http://www.w3.org/1999/xlink" width="32.3" height="26.508" viewBox="0 0 32.3 26.508">
  <defs>
    <clipPath id="clip-path">
      <rect id="Rectangle_36" data-name="Rectangle 36" width="32.3" height="26.508" fill="#070707"/>
    </clipPath>
  </defs>
  <g id="Group_7795" data-name="Group 7795" transform="translate(-1707.554 -603.477)">
    <g id="Group_7787" data-name="Group 7787" transform="translate(1707.554 603.477)">
      <g id="Group_7786" data-name="Group 7786" clip-path="url(#clip-path)">
        <path id="Path_23137" data-name="Path 23137" d="M9.426,26.044.464,17.081a1.592,1.592,0,0,1,0-2.247L14.832.466A1.536,1.536,0,0,1,16,0l8.438.216A1.9,1.9,0,0,1,26.29,2.073l.028,1.107c.2.057.407.122.613.194a10.817,10.817,0,0,1,1.152.481h0l.031.015a9.129,9.129,0,0,1,3.358,2.692l0,0A3.156,3.156,0,0,1,32.065,9.8a3.154,3.154,0,0,1-2.915,1.509l0,0a8.187,8.187,0,0,1-2.677-.4,1.538,1.538,0,0,1-.43.774L11.674,26.044a1.592,1.592,0,0,1-2.247,0M26.353,4.511l.113,4.415q-.194-.085-.388-.18A8.995,8.995,0,0,1,23.7,7.089a5.488,5.488,0,0,1-.9-1.148c.026-.023.053-.047.078-.073a1.585,1.585,0,1,0-.625.385,6.1,6.1,0,0,0,1,1.282A9.458,9.458,0,0,0,25.442,9.13l.048.016.031.015a7.854,7.854,0,0,0,3.585.884v0a2,2,0,0,0,1.826-.805A2,2,0,0,0,30.45,7.3h0a7.856,7.856,0,0,0-2.882-2.292l-.013-.006a9.573,9.573,0,0,0-1.044-.441Z" transform="translate(0 0)" fill="#070707" fill-rule="evenodd"/>
      </g>
    </g>
    <path id="Path_23123" data-name="Path 23123" d="M2.988,8.2V2.72H4.6V6.782H6.541A2.419,2.419,0,0,0,8.18,6.235a1.948,1.948,0,0,0,.654-1.573V0h1.611V4.627a3.678,3.678,0,0,1-.461,1.911A3.081,3.081,0,0,1,8.627,7.77a4.874,4.874,0,0,1-2.141.43ZM0,8.2V0H7.457V3.684a5.22,5.22,0,0,1-.034.582,4.922,4.922,0,0,1-.107.606,3.436,3.436,0,0,1-.189.568l-1.4.227L5.646,5.6a6.983,6.983,0,0,0,.148-.861,8.288,8.288,0,0,0,.052-.923v-2.4H1.611V8.2Z" transform="translate(1714.342 617.291) rotate(-45)" fill="#fff"/>
  </g>
</svg>
