<svg id="Group_7792" data-name="Group 7792" xmlns="http://www.w3.org/2000/svg" xmlns:xlink="http://www.w3.org/1999/xlink" width="22.307" height="27.165" viewBox="0 0 22.307 27.165">
  <defs>
    <clipPath id="clip-path">
      <rect id="Rectangle_38" data-name="Rectangle 38" width="22.307" height="27.165" fill="none"/>
    </clipPath>
  </defs>
  <g id="Group_7791" data-name="Group 7791" transform="translate(0 0)" clip-path="url(#clip-path)">
    <path id="Path_23139" data-name="Path 23139" d="M22.2,5.447a1.449,1.449,0,0,0-.869-1.192L11.726.118a1.45,1.45,0,0,0-1.147,0L.977,4.255A1.449,1.449,0,0,0,.108,5.447C.077,5.765-.615,13.315,1.923,19.4a13.025,13.025,0,0,0,8.957,7.737,1.446,1.446,0,0,0,.546,0A13.025,13.025,0,0,0,20.383,19.4C22.92,13.315,22.228,5.765,22.2,5.447M11.153,25.716A11.621,11.621,0,0,1,3.26,18.845c-2.427-5.823-1.71-13.26-1.71-13.26l9.6-4.136,9.6,4.136s.717,7.437-1.71,13.26a11.621,11.621,0,0,1-7.892,6.871" transform="translate(0.001 0)"/>
    <path id="Path_23140" data-name="Path 23140" d="M41.526,34.9l-8.1,3.487c-.093,2.084-.117,7.347,1.653,11.593a10.017,10.017,0,0,0,4.105,4.811,9.9,9.9,0,0,0,2.342,1.046,10.1,10.1,0,0,0,6.437-5.856c1.764-4.233,1.744-9.507,1.652-11.594Zm-.413,14.325-4.059-4.059,1.9-1.9,2.161,2.161,4.108-4.108,1.9,1.9Z" transform="translate(-30.373 -31.738)"/>
  </g>
</svg>
