<svg xmlns="http://www.w3.org/2000/svg" xmlns:xlink="http://www.w3.org/1999/xlink" width="155.699" height="49.463" viewBox="0 0 155.699 49.463">
  <defs>
    <clipPath id="clip-path">
      <rect id="Rectangle_40" data-name="Rectangle 40" width="155.699" height="49.463" fill="#fff"/>
    </clipPath>
  </defs>
  <g id="Group_7815" data-name="Group 7815" clip-path="url(#clip-path)">
    <path id="Path_23153" data-name="Path 23153" d="M1.273,29.586V16.255a3.671,3.671,0,0,0,3.393,2.4,3.67,3.67,0,0,0,3.393-2.4V29.586Zm0-16.255L1.271,0H8.057V13.332a3.668,3.668,0,0,0-3.392-2.4,3.668,3.668,0,0,0-3.393,2.4" transform="translate(-0.643)" fill="#fff"/>
    <path id="Path_23154" data-name="Path 23154" d="M23.293,37.344H29.43V24.913c0-4.184,2.94-4.93,4.15-4.93,3.889,0,3.716,2.86,3.717,5.345V37.345h6.138V25.411c0-2.693.648-5.428,4.106-5.428,3.5,0,3.761,2.362,3.761,5.221V37.345h6.138V23.008c0-5.552-3.414-7.666-8.17-7.666a8.2,8.2,0,0,0-6.743,3.564c-1.21-2.569-3.716-3.564-6.527-3.564a8.17,8.17,0,0,0-6.829,3.48h-.087v-2.9H23.293Z" transform="translate(-11.779 -7.758)" fill="#fff"/>
    <path id="Path_23155" data-name="Path 23155" d="M110.632,33.493c-3.977,0-5.361-3.315-5.36-6.8s1.3-6.92,5.315-6.92c3.933,0,5.359,3.523,5.359,6.92,0,3.48-1.3,6.8-5.315,6.8M99.351,43.814h6.137v-9.12h.086a8.047,8.047,0,0,0,6.7,3.232c6.526,0,9.811-5.346,9.811-11.063,0-6.091-3.156-11.52-10.157-11.52a7.528,7.528,0,0,0-6.656,3.314h-.088V15.923H99.35Z" transform="translate(-50.239 -7.759)" fill="#fff"/>
    <path id="Path_23156" data-name="Path 23156" d="M149.969,37.348h6.138V27.693c0-3.771,1.556-6.878,6.049-6.878a11.784,11.784,0,0,1,2.206.207v-5.47a4.774,4.774,0,0,0-1.34-.207A7.914,7.914,0,0,0,155.89,19.9H155.8V15.925h-5.835Z" transform="translate(-75.837 -7.76)" fill="#fff"/>
    <path id="Path_23157" data-name="Path 23157" d="M185.613,24.337a4.74,4.74,0,0,1,5.1-4.559c2.983,0,4.324,1.575,4.884,4.559Zm16.123,3.73c.431-6.589-3.242-12.722-10.85-12.722a10.965,10.965,0,0,0-11.41,11.312c0,6.63,4.366,11.271,11.412,11.271,5.056,0,8.729-2.154,10.458-7.21h-5.4c-.389,1.326-2.377,2.776-4.841,2.776-3.414,0-5.316-1.7-5.488-5.428Z" transform="translate(-90.758 -7.76)" fill="#fff"/>
    <path id="Path_23158" data-name="Path 23158" d="M227.91,30.389c.26,5.677,5.316,7.541,10.5,7.542,5.1,0,10.2-1.823,10.2-7.459,0-3.978-3.5-5.221-7.088-6.008-3.5-.788-6.959-1.078-6.959-3.191,0-1.74,2.032-1.989,3.414-1.989,2.2,0,4.02.622,4.193,2.9h5.835c-.476-5.263-4.97-6.837-9.855-6.837-4.8,0-9.725,1.408-9.724,6.877,0,3.771,3.544,4.973,7.089,5.718,4.408.912,6.958,1.534,6.958,3.315,0,2.072-2.247,2.735-4.019,2.735-2.421,0-4.668-1.036-4.711-3.605Z" transform="translate(-115.25 -7.761)" fill="#fff"/>
    <path id="Path_23159" data-name="Path 23159" d="M273.1,30.39c.26,5.677,5.316,7.542,10.5,7.542,5.1,0,10.2-1.823,10.2-7.458,0-3.979-3.5-5.222-7.087-6.009-3.5-.788-6.96-1.078-6.96-3.191,0-1.74,2.032-1.989,3.414-1.989,2.2,0,4.021.622,4.193,2.9h5.835c-.475-5.263-4.97-6.837-9.854-6.837-4.8,0-9.725,1.408-9.725,6.878,0,3.771,3.545,4.973,7.089,5.718,4.409.912,6.959,1.534,6.959,3.315,0,2.072-2.248,2.736-4.019,2.736-2.421,0-4.669-1.037-4.711-3.606Z" transform="translate(-138.1 -7.762)" fill="#fff"/>
    <path id="Path_23160" data-name="Path 23160" d="M0,87.413H5.525v6.066H0Zm3.829,1.234H1.7V92.24H3.829Z" transform="translate(0 -44.203)" fill="#fff"/>
    <path id="Path_23161" data-name="Path 23161" d="M15.091,88.647H14.076V87.413h2.711v3.461h-1.7Z" transform="translate(-7.118 -44.203)" fill="#fff"/>
    <path id="Path_23162" data-name="Path 23162" d="M23.079,93.547q-.275-.033-.653-.109l.005-1.194a5.605,5.605,0,0,0,.783.051.727.727,0,0,0,.554-.193.84.84,0,0,0,.18-.592V88.647H22.8V87.413h2.841v4.224a2.176,2.176,0,0,1-.235,1.047,1.58,1.58,0,0,1-.681.665,2.3,2.3,0,0,1-1.067.23,4.86,4.86,0,0,1-.583-.033" transform="translate(-11.34 -44.203)" fill="#fff"/>
    <path id="Path_23163" data-name="Path 23163" d="M32.676,88.647h-.567V87.413h2.263v6.066h-1.7Z" transform="translate(-16.237 -44.203)" fill="#fff"/>
    <path id="Path_23164" data-name="Path 23164" d="M45.409,87.413v3.476a2.715,2.715,0,0,1-.394,1.5,2.454,2.454,0,0,1-1.1.928,4.076,4.076,0,0,1-1.655.313,7.708,7.708,0,0,1-2.571-.445l.351-1.159a7.217,7.217,0,0,0,1.475.38,1.87,1.87,0,0,1-.338-.4,1.561,1.561,0,0,1-.2-.468l-1-4.124h1.707l.951,4.28a2.636,2.636,0,0,0,.216.608,1.317,1.317,0,0,0,.646-.5,1.47,1.47,0,0,0,.224-.832V87.413Z" transform="translate(-20.067 -44.203)" fill="#fff"/>
    <path id="Path_23165" data-name="Path 23165" d="M57.024,92.016a6.032,6.032,0,0,0,1,.3,4.836,4.836,0,0,0,.986.111,3.284,3.284,0,0,0,1.864-.468,1.593,1.593,0,0,0,.691-1.415V87.412H63.2v3.309a2.459,2.459,0,0,1-.548,1.619,3.309,3.309,0,0,1-1.48.994,6.216,6.216,0,0,1-2.093.332,9.073,9.073,0,0,1-1.866-.2,8.85,8.85,0,0,1-1.828-.592V87.412h1.637ZM58.388,91a5.051,5.051,0,0,0,.056-.777V87.412h1.642v2.479a3.522,3.522,0,0,1-.127.963,1.708,1.708,0,0,1-.354.7l-1.378,0a1.748,1.748,0,0,0,.16-.544" transform="translate(-28.008 -44.203)" fill="#fff"/>
    <path id="Path_23166" data-name="Path 23166" d="M74.947,88.647H74.38V87.413h2.263v6.066h-1.7Z" transform="translate(-37.613 -44.203)" fill="#fff"/>
    <path id="Path_23167" data-name="Path 23167" d="M89.212,87.413h5.525v6.066H89.212Zm3.829,1.234H90.908V92.24h2.133Z" transform="translate(-45.113 -44.203)" fill="#fff"/>
    <path id="Path_23168" data-name="Path 23168" d="M104.3,88.647h-1.015V87.413H106v3.461h-1.7Z" transform="translate(-52.231 -44.203)" fill="#fff"/>
    <path id="Path_23169" data-name="Path 23169" d="M114.112,93.2a2.4,2.4,0,0,1-.994-.921,2.626,2.626,0,0,1-.353-1.369V87.34h1.7v3.754a1.375,1.375,0,0,0,.14.635,1.019,1.019,0,0,0,.4.428,1.218,1.218,0,0,0,1.177,0,1.019,1.019,0,0,0,.4-.428,1.375,1.375,0,0,0,.14-.635V89.349q0-.794-.735-.794a2.8,2.8,0,0,0-.589.081l-.162-1.017a2.962,2.962,0,0,1,.659-.253,2.71,2.71,0,0,1,.686-.1,1.96,1.96,0,0,1,.98.233,1.55,1.55,0,0,1,.635.672,2.3,2.3,0,0,1,.221,1.047v1.69a2.639,2.639,0,0,1-.351,1.369,2.381,2.381,0,0,1-.991.921,3.508,3.508,0,0,1-2.955,0" transform="translate(-57.023 -44.13)" fill="#fff"/>
    <path id="Path_23170" data-name="Path 23170" d="M127.407,88.647h-1.015V87.413H129.1v3.461h-1.7Z" transform="translate(-63.914 -44.203)" fill="#fff"/>
    <path id="Path_23171" data-name="Path 23171" d="M137.5,92.016a6.032,6.032,0,0,0,1,.3,4.836,4.836,0,0,0,.986.111,3.284,3.284,0,0,0,1.864-.468,1.593,1.593,0,0,0,.691-1.415V87.412h1.637v3.309a2.457,2.457,0,0,1-.548,1.619,3.3,3.3,0,0,1-1.48.994,6.216,6.216,0,0,1-2.093.332,9.073,9.073,0,0,1-1.866-.2,8.85,8.85,0,0,1-1.828-.592V87.412H137.5ZM138.868,91a5.048,5.048,0,0,0,.056-.777V87.412h1.642v2.479a3.522,3.522,0,0,1-.127.963,1.708,1.708,0,0,1-.354.7l-1.378,0a1.747,1.747,0,0,0,.16-.544" transform="translate(-68.705 -44.203)" fill="#fff"/>
    <path id="Path_23172" data-name="Path 23172" d="M154.729,93.337l.259-1.154a7.117,7.117,0,0,0,1.4.167,1.774,1.774,0,0,0,1.162-.326,1.2,1.2,0,0,0,.372-.964V88.647h-2.944V87.413h4.634v3.375a2.637,2.637,0,0,1-.788,2.107,3.28,3.28,0,0,1-2.21.68,8.782,8.782,0,0,1-1.885-.237" transform="translate(-78.244 -44.203)" fill="#fff"/>
    <path id="Path_23173" data-name="Path 23173" d="M172.788,87.992a2.174,2.174,0,0,1,.653,1.718v3.769h-1.691l-.011-3.9a.994.994,0,0,0-.216-.7.863.863,0,0,0-.659-.23h-.837a4.386,4.386,0,0,0-.127.612,4.663,4.663,0,0,0-.046.633v1.735a2.2,2.2,0,0,1-.232,1.047,1.566,1.566,0,0,1-.675.665,2.264,2.264,0,0,1-1.058.23,5.241,5.241,0,0,1-.821-.071V92.275q.237.01.356.01a.691.691,0,0,0,.784-.78V90.034a3.1,3.1,0,0,1,.095-.726,2.038,2.038,0,0,1,.273-.66h-1.01V87.413h3.3a2.827,2.827,0,0,1,1.928.579" transform="translate(-84.483 -44.203)" fill="#fff"/>
    <path id="Path_23174" data-name="Path 23174" d="M187.977,86.685l-2.145,5.049H184.04l2.117-4.832h-3.473V83.963h1.7v1.7h3.6Z" transform="translate(-92.38 -42.459)" fill="#fff"/>
    <path id="Path_23175" data-name="Path 23175" d="M206.678,87.992a2.174,2.174,0,0,1,.653,1.718v3.769h-1.691l-.011-3.9a.994.994,0,0,0-.216-.7.863.863,0,0,0-.659-.23h-.837a4.386,4.386,0,0,0-.127.612,4.663,4.663,0,0,0-.046.633v1.735a2.2,2.2,0,0,1-.232,1.047,1.566,1.566,0,0,1-.675.665,2.264,2.264,0,0,1-1.058.23,5.242,5.242,0,0,1-.821-.071V92.275q.237.01.356.01a.691.691,0,0,0,.783-.78V90.034a3.1,3.1,0,0,1,.095-.726,2.038,2.038,0,0,1,.273-.66h-1.01V87.413h3.3a2.827,2.827,0,0,1,1.928.579" transform="translate(-101.621 -44.203)" fill="#fff"/>
    <path id="Path_23176" data-name="Path 23176" d="M217.262,88.647h-.567V87.413h2.264v6.066h-1.7Z" transform="translate(-109.579 -44.203)" fill="#fff"/>
    <path id="Path_23177" data-name="Path 23177" d="M225.186,88.647h-1.015V87.413h2.712v3.461h-1.7Z" transform="translate(-113.359 -44.203)" fill="#fff"/>
    <path id="Path_23178" data-name="Path 23178" d="M233.263,88.647H232.7V87.413h2.264v6.066h-1.7Z" transform="translate(-117.67 -44.203)" fill="#fff"/>
    <path id="Path_23179" data-name="Path 23179" d="M240.923,93.547q-.275-.033-.653-.109l.005-1.194a5.605,5.605,0,0,0,.783.051.727.727,0,0,0,.554-.193.838.838,0,0,0,.181-.592V88.647h-1.145V87.413h2.841v4.224a2.176,2.176,0,0,1-.235,1.047,1.58,1.58,0,0,1-.681.665,2.3,2.3,0,0,1-1.066.23,4.863,4.863,0,0,1-.584-.033" transform="translate(-121.5 -44.203)" fill="#fff"/>
    <path id="Path_23180" data-name="Path 23180" d="M250.909,87.413h2.82a2.807,2.807,0,0,1,1.92.579,2.21,2.21,0,0,1,.662,1.717v3.769H254.62l-.011-3.9q0-.931-.874-.931H252.6v4.831h-1.7Z" transform="translate(-126.877 -44.203)" fill="#fff"/>
    <path id="Path_23181" data-name="Path 23181" d="M275.816,87.992a2.174,2.174,0,0,1,.653,1.718v3.769h-1.691l-.011-3.9a.994.994,0,0,0-.216-.7.863.863,0,0,0-.659-.23h-.837a4.386,4.386,0,0,0-.127.612,4.668,4.668,0,0,0-.046.633v1.735a2.2,2.2,0,0,1-.232,1.047,1.566,1.566,0,0,1-.675.665,2.265,2.265,0,0,1-1.058.23,5.241,5.241,0,0,1-.821-.071V92.275q.237.01.356.01a.691.691,0,0,0,.783-.78V90.034a3.1,3.1,0,0,1,.095-.726,2.04,2.04,0,0,1,.273-.66h-1.01V87.413h3.3a2.827,2.827,0,0,1,1.928.579" transform="translate(-136.583 -44.203)" fill="#fff"/>
    <path id="Path_23182" data-name="Path 23182" d="M288.42,92.016a6.032,6.032,0,0,0,1,.3,4.832,4.832,0,0,0,.986.111,3.282,3.282,0,0,0,1.863-.468,1.592,1.592,0,0,0,.692-1.415V87.412H294.6v3.309a2.459,2.459,0,0,1-.548,1.619,3.309,3.309,0,0,1-1.48.994,6.217,6.217,0,0,1-2.093.332,9.073,9.073,0,0,1-1.866-.2,8.825,8.825,0,0,1-1.828-.592V87.412h1.636ZM289.784,91a4.93,4.93,0,0,0,.056-.777V87.412h1.642v2.479a3.541,3.541,0,0,1-.127.963,1.7,1.7,0,0,1-.354.7l-1.377,0a1.748,1.748,0,0,0,.16-.544" transform="translate(-145.021 -44.203)" fill="#fff"/>
    <path id="Path_23183" data-name="Path 23183" d="M308.224,89.472a.768.768,0,0,0-.243-.615,1.043,1.043,0,0,0-.7-.21h-1.95V87.413H307.4a3.268,3.268,0,0,1,1.35.256,1.914,1.914,0,0,1,.867.736,2.123,2.123,0,0,1,.3,1.148v3.926h-1.7Z" transform="translate(-154.399 -44.203)" fill="#fff"/>
  </g>
</svg>
